<svg xmlns="http://www.w3.org/2000/svg" viewBox="0 0 1440 320"><path fill="#b5b3ee" fill-opacity="1" d="M0,128L18.5,106.7C36.9,85,74,43,111,48C147.7,53,185,107,222,117.3C258.5,128,295,96,332,117.3C369.2,139,406,213,443,234.7C480,256,517,224,554,186.7C590.8,149,628,107,665,112C701.5,117,738,171,775,197.3C812.3,224,849,224,886,202.7C923.1,181,960,139,997,128C1033.8,117,1071,139,1108,133.3C1144.6,128,1182,96,1218,90.7C1255.4,85,1292,107,1329,117.3C1366.2,128,1403,128,1422,128L1440,128L1440,0L1421.5,0C1403.1,0,1366,0,1329,0C1292.3,0,1255,0,1218,0C1181.5,0,1145,0,1108,0C1070.8,0,1034,0,997,0C960,0,923,0,886,0C849.2,0,812,0,775,0C738.5,0,702,0,665,0C627.7,0,591,0,554,0C516.9,0,480,0,443,0C406.2,0,369,0,332,0C295.4,0,258,0,222,0C184.6,0,148,0,111,0C73.8,0,37,0,18,0L0,0Z"></path></svg>